<svg xmlns="http://www.w3.org/2000/svg" viewBox="0 0 15 12" width="15" height="12">
	<style>
		tspan { white-space:pre }
		.shp0 { fill: #60558f } 
	</style>
	<g id="Player">
		<g id="Volume">
			<g id="Toggle">
				<path id="audio" class="shp0" d="M4.79 8.17L8.75 10.06L8.75 1.06L4.79 3.34L4.79 8.17ZM1.5 4.03L1.5 7.48C1.5 7.86 1.79 8.17 2.16 8.17L4.14 8.17L4.14 3.34L2.16 3.34C1.79 3.34 1.5 3.65 1.5 4.03ZM10.77 2.96L10 3.73C10.37 4.15 10.57 4.69 10.57 5.26C10.57 5.83 10.37 6.37 10 6.78L10.77 7.56C11.31 6.96 11.64 6.15 11.64 5.26C11.64 4.37 11.31 3.56 10.77 2.96ZM12.11 1.62L11.34 2.39C11.67 2.75 11.93 3.17 12.12 3.64C12.33 4.15 12.43 4.7 12.43 5.26C12.43 5.82 12.33 6.37 12.12 6.88C11.93 7.35 11.67 7.76 11.34 8.13L12.11 8.9C12.97 7.95 13.5 6.67 13.5 5.26C13.5 3.85 12.97 2.57 12.11 1.62Z" />
			</g>
		</g>
	</g>
</svg>