<svg xmlns="http://www.w3.org/2000/svg" viewBox="0 0 19 19" width="19" height="19">
	<style>
		tspan { white-space:pre }
		.shp0 { fill: #ffffff } 
	</style>
	<g id="Player">
		<g id="Top  options">
			<path id="refresh 1" class="shp0" d="M17.4 8.23L14.9 8.23C15 8.65 15.05 9.07 15.05 9.51C15.05 10.26 14.9 10.98 14.61 11.66C14.33 12.32 13.93 12.92 13.42 13.43C12.91 13.94 12.32 14.34 11.66 14.62C10.98 14.9 10.25 15.05 9.5 15.05C8.75 15.05 8.02 14.9 7.34 14.62C6.68 14.34 6.09 13.94 5.58 13.43C5.07 12.92 4.67 12.32 4.39 11.66C4.1 10.98 3.95 10.26 3.95 9.51C3.95 8.76 4.1 8.03 4.39 7.35C4.67 6.69 5.07 6.1 5.58 5.59C6.09 5.08 6.68 4.68 7.34 4.4C8.02 4.11 8.75 3.97 9.5 3.97C10.25 3.97 10.98 4.11 11.66 4.4C11.95 4.52 12.22 4.67 12.49 4.84L10.92 6.4L15.83 6.4L15.83 1.5L14.25 3.08C12.92 2.1 11.28 1.52 9.5 1.52C5.08 1.52 1.5 5.09 1.5 9.51C1.5 13.92 5.08 17.5 9.5 17.5C13.92 17.5 17.5 13.92 17.5 9.51C17.5 9.07 17.46 8.65 17.4 8.23Z" />
		</g>
	</g>
</svg>