<svg xmlns="http://www.w3.org/2000/svg" viewBox="0 0 15 15" width="15" height="15">
	<style>
		tspan { white-space:pre }
		.shp0 { fill: #60558f } 
	</style>
	<g id="Player">
		<g id="Share">
			<path id="share 2" class="shp0" d="M11.2 8.9C10.55 8.9 9.96 9.17 9.54 9.61L6.07 7.87C6.09 7.75 6.1 7.63 6.1 7.5C6.1 7.37 6.09 7.25 6.07 7.12L9.54 5.39C9.96 5.83 10.55 6.1 11.2 6.1C12.47 6.1 13.5 5.07 13.5 3.8C13.5 2.53 12.47 1.5 11.2 1.5C9.93 1.5 8.9 2.53 8.9 3.8C8.9 3.93 8.91 4.05 8.93 4.18L5.46 5.91C5.04 5.47 4.45 5.2 3.8 5.2C2.53 5.2 1.5 6.23 1.5 7.5C1.5 8.77 2.53 9.8 3.8 9.8C4.45 9.8 5.04 9.53 5.46 9.09L8.93 10.82C8.91 10.95 8.9 11.07 8.9 11.2C8.9 12.47 9.93 13.5 11.2 13.5C12.47 13.5 13.5 12.47 13.5 11.2C13.5 9.93 12.47 8.9 11.2 8.9Z" />
		</g>
	</g>
</svg>