<svg xmlns="http://www.w3.org/2000/svg" viewBox="0 0 19 18" width="19" height="18">
	<style>
		tspan { white-space:pre }
		.shp0 { fill: #ffffff } 
	</style>
	<g id="Player">
		<g id="Top  options">
			<path id="shuffle" class="shp0" d="M14.02 11.66L11.7 11.66L6.98 3.55L6.97 3.55L6.97 3.55L1.5 3.55L1.5 6.09L5.5 6.09L10.22 14.2L10.23 14.2L10.23 14.2L14.02 14.2L14.02 16.37L17.49 12.93L14.02 9.49L14.02 11.66ZM14.03 6.09L14.03 8.26L17.5 4.82L14.03 1.38L14.03 3.55L9.59 3.55L11.07 6.09L14.03 6.09ZM1.5 11.66L1.5 14.2L7.61 14.2L6.13 11.66L1.5 11.66Z" />
		</g>
	</g>
</svg>